{
	"asset":{
		"generator":"Khronos glTF Blender I/O v3.6.27",
		"version":"2.0"
	},
	"scene":0,
	"scenes":[
		{
			"name":"Scene",
			"nodes":[
				0
			]
		}
	],
	"nodes":[
		{
			"mesh":0,
			"name":"barrierMedium.001",
			"rotation":[
				0,
				0,
				0.7076051831245422,
				0.7066080570220947
			]
		}
	],
	"materials":[
		{
			"doubleSided":true,
			"name":"Metal.010",
			"pbrMetallicRoughness":{
				"baseColorFactor":[
					0.40126433968544006,
					0.47849249839782715,
					0.5173344612121582,
					1
				],
				"metallicFactor":0.20000000298023224,
				"roughnessFactor":0.30000001192092896
			}
		}
	],
	"meshes":[
		{
			"name":"Cube.001",
			"primitives":[
				{
					"attributes":{
						"POSITION":0,
						"NORMAL":1,
						"TEXCOORD_0":2
					},
					"indices":3,
					"material":0
				}
			]
		}
	],
	"accessors":[
		{
			"bufferView":0,
			"componentType":5126,
			"count":48,
			"max":[
				1.898390293121338,
				0.07640593498945236,
				-0.336777001619339
			],
			"min":[
				-1.8980265855789185,
				-0.0764060690999031,
				-0.4895457327365875
			],
			"type":"VEC3"
		},
		{
			"bufferView":1,
			"componentType":5126,
			"count":48,
			"type":"VEC3"
		},
		{
			"bufferView":2,
			"componentType":5126,
			"count":48,
			"type":"VEC2"
		},
		{
			"bufferView":3,
			"componentType":5123,
			"count":72,
			"type":"SCALAR"
		}
	],
	"bufferViews":[
		{
			"buffer":0,
			"byteLength":576,
			"byteOffset":0,
			"target":34962
		},
		{
			"buffer":0,
			"byteLength":576,
			"byteOffset":576,
			"target":34962
		},
		{
			"buffer":0,
			"byteLength":384,
			"byteOffset":1152,
			"target":34962
		},
		{
			"buffer":0,
			"byteLength":144,
			"byteOffset":1536,
			"target":34963
		}
	],
	"buffers":[
		{
			"byteLength":1680,
			"uri":"data:application/octet-stream;base64,"
		}
	]
}
