{
	"asset":{
		"generator":"Khronos glTF Blender I/O v3.6.27",
		"version":"2.0"
	},
	"scene":0,
	"scenes":[
		{
			"name":"Scene",
			"nodes":[
				0
			]
		}
	],
	"nodes":[
		{
			"mesh":0,
			"name":"curva",
			"rotation":[
				0.70710688829422,
				0,
				0,
				0.7071066498756409
			],
			"translation":[
				-0.0463438481092453,
				0.5499968528747559,
				0.2835240364074707
			]
		}
	],
	"materials":[
		{
			"doubleSided":true,
			"name":"Metal.002",
			"pbrMetallicRoughness":{
				"baseColorFactor":[
					0.40126433968544006,
					0.47849249839782715,
					0.5173344612121582,
					1
				],
				"metallicFactor":0.20000000298023224,
				"roughnessFactor":0.30000001192092896
			}
		}
	],
	"meshes":[
		{
			"name":"Cube.002",
			"primitives":[
				{
					"attributes":{
						"POSITION":0,
						"NORMAL":1,
						"TEXCOORD_0":2
					},
					"indices":3,
					"material":0
				}
			]
		}
	],
	"accessors":[
		{
			"bufferView":0,
			"componentType":5126,
			"count":169,
			"max":[
				0.21985451877117157,
				0.08252151310443878,
				0.2198546975851059
			],
			"min":[
				-0.1817198544740677,
				-0.08252152055501938,
				-0.1817197948694229
			],
			"type":"VEC3"
		},
		{
			"bufferView":1,
			"componentType":5126,
			"count":169,
			"type":"VEC3"
		},
		{
			"bufferView":2,
			"componentType":5126,
			"count":169,
			"type":"VEC2"
		},
		{
			"bufferView":3,
			"componentType":5123,
			"count":864,
			"type":"SCALAR"
		}
	],
	"bufferViews":[
		{
			"buffer":0,
			"byteLength":2028,
			"byteOffset":0,
			"target":34962
		},
		{
			"buffer":0,
			"byteLength":2028,
			"byteOffset":2028,
			"target":34962
		},
		{
			"buffer":0,
			"byteLength":1352,
			"byteOffset":4056,
			"target":34962
		},
		{
			"buffer":0,
			"byteLength":1728,
			"byteOffset":5408,
			"target":34963
		}
	],
	"buffers":[
		{
			"byteLength":7136,
			"uri":"data:application/octet-stream;base64,"
		}
	]
}
