{
	"asset":{
		"generator":"Khronos glTF Blender I/O v3.6.27",
		"version":"2.0"
	},
	"scene":0,
	"scenes":[
		{
			"name":"Scene",
			"nodes":[
				0,
				1
			]
		}
	],
	"nodes":[
		{
			"mesh":0,
			"name":"barrierMedium.001",
			"rotation":[
				0,
				0,
				0.7076051831245422,
				0.7066080570220947
			],
			"scale":[
				0.5,
				0.5,
				0.5
			]
		},
		{
			"mesh":1,
			"name":"barrierMedium.002",
			"rotation":[
				0,
				0,
				0.7076051831245422,
				0.7066080570220947
			],
			"scale":[
				0.5,
				0.5,
				0.5
			]
		}
	],
	"materials":[
		{
			"doubleSided":true,
			"name":"Metal.010",
			"pbrMetallicRoughness":{
				"baseColorFactor":[
					0.40126433968544006,
					0.47849249839782715,
					0.5173344612121582,
					1
				],
				"metallicFactor":0.20000000298023224,
				"roughnessFactor":0.30000001192092896
			}
		},
		{
			"doubleSided":true,
			"name":"Metal.001",
			"pbrMetallicRoughness":{
				"baseColorFactor":[
					0.40126433968544006,
					0.47849249839782715,
					0.5173344612121582,
					1
				],
				"metallicFactor":0.20000000298023224,
				"roughnessFactor":0.30000001192092896
			}
		}
	],
	"meshes":[
		{
			"name":"Cube.001",
			"primitives":[
				{
					"attributes":{
						"POSITION":0,
						"NORMAL":1,
						"TEXCOORD_0":2
					},
					"indices":3,
					"material":0
				}
			]
		},
		{
			"name":"Cube.002",
			"primitives":[
				{
					"attributes":{
						"POSITION":4,
						"NORMAL":5,
						"TEXCOORD_0":6
					},
					"indices":7,
					"material":1
				}
			]
		}
	],
	"accessors":[
		{
			"bufferView":0,
			"componentType":5126,
			"count":280,
			"max":[
				2.6888599395751953,
				0.1861570179462433,
				0.18555912375450134
			],
			"min":[
				-0.001743365079164505,
				-0.18623565137386322,
				-0.18665865063667297
			],
			"type":"VEC3"
		},
		{
			"bufferView":1,
			"componentType":5126,
			"count":280,
			"type":"VEC3"
		},
		{
			"bufferView":2,
			"componentType":5126,
			"count":280,
			"type":"VEC2"
		},
		{
			"bufferView":3,
			"componentType":5123,
			"count":672,
			"type":"SCALAR"
		},
		{
			"bufferView":4,
			"componentType":5126,
			"count":292,
			"max":[
				2.6888599395751953,
				0.1861570179462433,
				0.18555912375450134
			],
			"min":[
				-0.001743365079164505,
				-0.18623565137386322,
				-0.18665865063667297
			],
			"type":"VEC3"
		},
		{
			"bufferView":5,
			"componentType":5126,
			"count":292,
			"type":"VEC3"
		},
		{
			"bufferView":6,
			"componentType":5126,
			"count":292,
			"type":"VEC2"
		},
		{
			"bufferView":7,
			"componentType":5123,
			"count":672,
			"type":"SCALAR"
		}
	],
	"bufferViews":[
		{
			"buffer":0,
			"byteLength":3360,
			"byteOffset":0,
			"target":34962
		},
		{
			"buffer":0,
			"byteLength":3360,
			"byteOffset":3360,
			"target":34962
		},
		{
			"buffer":0,
			"byteLength":2240,
			"byteOffset":6720,
			"target":34962
		},
		{
			"buffer":0,
			"byteLength":1344,
			"byteOffset":8960,
			"target":34963
		},
		{
			"buffer":0,
			"byteLength":3504,
			"byteOffset":10304,
			"target":34962
		},
		{
			"buffer":0,
			"byteLength":3504,
			"byteOffset":13808,
			"target":34962
		},
		{
			"buffer":0,
			"byteLength":2336,
			"byteOffset":17312,
			"target":34962
		},
		{
			"buffer":0,
			"byteLength":1344,
			"byteOffset":19648,
			"target":34963
		}
	],
	"buffers":[
		{
			"byteLength":20992,
			"uri":"ver1.bin"
		}
	]
}
